<svg width="519" height="120" xmlns="http://www.w3.org/2000/svg" xmlns:xlink="http://www.w3.org/1999/xlink"><defs><path id="a" d="M.06.543v61.44h52.994V.543H.06z"/><path id="c" d="M77.066 28.94H.81V.851h76.256V28.94z"/></defs><g fill="none" fill-rule="evenodd"><g transform="translate(0 6)"><mask id="b" fill="#fff"><use xlink:href="#a"/></mask><path d="M0 61.983v-9.001h7.137V9.549H0V.543h28.55c13.105 0 21.093 6.038 21.093 16.524 0 6.884-4.047 11.123-9.16 13.135 7.349 2.014 12.571 7.203 12.571 14.301 0 11.226-8.736 17.478-23.011 17.478H0v.002zM16.938 9.549v16.738h10.653c7.991 0 12.145-2.969 12.145-8.371 0-5.509-4.26-8.37-12.25-8.37H16.938v.003zm0 43.433h12.146c9.377 0 14.064-3.073 14.064-9.006 0-5.827-5.01-9.003-14.81-9.003h-11.4v18.009z" fill="#FFF" mask="url(#b)"/></g><path d="M104.836 35.995c-1.065-3.604-3.73-5.722-7.245-5.722-8.204 0-15.98 6.037-15.98 17.054v11.655h15.768v9.001H62.218v-9.001h10.015v-27.12h-7.882v-9.005h17.152v7.627c2.875-5.297 8.736-9.111 16.513-9.111 8.737 0 14.17 4.978 15.768 12.076l-8.948 2.546M152.778 41.714v-2.543c0-6.357-5.114-9.006-10.652-9.006-5.22 0-9.697 2.119-13.318 5.403l-6.181-6.673c4.263-3.923 10.334-7.522 19.499-7.522 11.398 0 20.24 6.04 20.24 17.478v20.131h6.608v9.001h-16.196v-4.766c-2.448 3.921-9.054 6.251-15.553 6.251-9.375 0-17.473-4.767-17.473-14.196 0-11.123 10.975-15.358 20.987-15.358 4.904 0 8.95.951 12.039 1.8zm0 8.048c-2.981-1.059-7.455-1.908-11.613-1.908-5.965 0-11.72 1.908-11.72 7.311 0 4.024 3.622 5.932 8.629 5.932 6.925 0 14.702-3.708 14.702-10.065v-1.27h.002zM225.865 58.982v9.001h-45.81v-9.001h18.964v-27.12H184.53v-9.005h23.863v36.122h17.472v.003zm-28.018-45.13h10.549V.08h-10.549v13.772zM237.163 58.982h6.925v-27.12h-6.501v-9.005h15.77v5.823c2.771-4.448 8.522-7.307 15.553-7.307 10.119 0 17.367 6.357 17.367 16.633v20.973h6.923v9.002h-23.542v-9.002h7.243V40.546c0-7.838-4.795-10.062-9.163-10.062-7.137 0-14.276 5.297-14.276 13.453v15.045h7.244v9.001h-23.543v-9.001M306.093 31.859h-11.826v-9.002h11.826V6.543h9.376v16.314h22.053v9.002h-22.053v18.963c0 6.991 4.903 9.854 10.547 9.854 5.331 0 9.802-2.967 13.104-6.251l6.289 6.462c-4.155 4.45-10.547 8.581-19.39 8.581-11.395 0-19.924-6.251-19.924-18.325V31.859M396.546 35.995c-1.068-3.604-3.727-5.722-7.243-5.722-8.204 0-15.98 6.037-15.98 17.054v11.655h15.769v9.001h-35.159v-9.001h10.013v-27.12h-7.887v-9.005h17.155v7.627c2.877-5.297 8.735-9.111 16.512-9.111 8.735 0 14.17 4.978 15.769 12.076l-8.949 2.546M459.621 61.097c-4.686 4.874-12.998 8.371-22.269 8.371-15.23 0-25.888-10.171-25.888-24.046 0-13.878 10.338-24.049 24.718-24.049 14.276 0 24.292 10.914 24.292 25.74v1.59h-39.103c1.599 7.522 7.888 12.076 16.089 12.076 6.82 0 12.676-2.752 15.877-6.249l6.284 6.567zM421.8 40.759h27.908c-1.381-6.461-7.134-10.806-13.526-10.806-7.246 0-12.784 4.449-14.382 10.806zM517.897 61.097c-4.686 4.874-12.998 8.371-22.264 8.371-15.235 0-25.89-10.171-25.89-24.046 0-13.878 10.332-24.049 24.717-24.049 14.277 0 24.293 10.914 24.293 25.74v1.59h-39.105c1.603 7.522 7.887 12.076 16.091 12.076 6.817 0 12.678-2.752 15.874-6.249l6.284 6.567zm-37.822-20.338h27.914c-1.384-6.461-7.137-10.806-13.529-10.806-7.245 0-12.787 4.449-14.385 10.806zM260.686 96.22l-4.967 9.525h6.924l-1.957-9.525zm-6.195 11.89l-2.395 4.617h-2.95l10.752-20.16h2.657l4.354 20.16h-2.805l-.964-4.617h-8.649zM439.021 110.969c1.053 0 1.929-.199 2.629-.599.701-.399 1.218-.911 1.549-1.534a4.063 4.063 0 0 0 .498-1.928c0-.585-.162-1.086-.484-1.505-.321-.418-.872-.823-1.65-1.212l-2.542-1.081c-1.442-.643-2.479-1.343-3.112-2.104-.632-.758-.949-1.685-.949-2.775 0-1.188.301-2.235.906-3.141.602-.906 1.447-1.601 2.527-2.088 1.081-.487 2.324-.731 3.725-.731 1.169.019 2.192.181 3.068.482a6.554 6.554 0 0 1 2.309 1.358l-.44 2.717c-1.5-1.363-3.243-2.055-5.229-2.074-1.208 0-2.197.303-2.965.905-.77.605-1.154 1.374-1.154 2.309 0 .526.189.974.569 1.344.38.37 1.076.789 2.089 1.256l2.484 1.111c1.343.662 2.293 1.377 2.848 2.146.556.769.832 1.691.832 2.761 0 1.226-.262 2.358-.788 3.39s-1.374 1.875-2.542 2.526c-1.168.654-2.668.979-4.499.979-2.514 0-4.49-.634-5.932-1.898l.468-2.893c1.733 1.519 3.661 2.279 5.785 2.279M453.092 101.518a6.055 6.055 0 0 0-1.885 2.936h8.474c.019-.156.028-.37.028-.643 0-1.091-.291-1.948-.876-2.572-.585-.622-1.412-.933-2.484-.933-1.246 0-2.332.404-3.257 1.212m7.684-1.812c.963 1.062 1.447 2.441 1.447 4.133 0 .566-.03 1.034-.089 1.403-.058.372-.156.81-.291 1.314h-10.987c-.057 1.461.321 2.588 1.139 3.376.818.789 1.929 1.183 3.332 1.183.974 0 1.861-.121 2.66-.365a9.947 9.947 0 0 0 2.365-1.096l-.35 2.191c-1.5 1.013-3.273 1.519-5.318 1.519-1.343 0-2.508-.287-3.491-.862a5.69 5.69 0 0 1-2.25-2.381c-.516-1.012-.774-2.151-.774-3.418 0-1.247.31-2.536.934-3.871.624-1.334 1.57-2.453 2.835-3.36 1.266-.904 2.823-1.358 4.673-1.358 1.814 0 3.201.531 4.165 1.592M471.232 100.772c-1.15 0-2.124.414-2.921 1.243-.799.826-1.326 2.03-1.579 3.607l-1.138 7.217h-2.602l2.25-14.258h2.514l-.38 2.424c1.168-1.674 2.571-2.512 4.206-2.512.41 0 .79.03 1.14.088l-.35 2.279a6.999 6.999 0 0 0-1.14-.088M479.047 112.839h-2.425l-3.388-14.257h2.599l2.425 11.13 5.93-11.13h2.718l-7.859 14.257M488.8 95.835c-.263-.272-.395-.613-.395-1.023 0-.506.193-.944.584-1.314.389-.37.837-.555 1.344-.555.409 0 .746.136 1.008.408.263.273.395.615.395 1.023 0 .487-.197.92-.586 1.3-.388.38-.837.569-1.343.569-.408 0-.745-.135-1.007-.408m-.307 17.004h-2.602l2.192-14.257h2.63l-2.22 14.257M494.581 112.488a6.21 6.21 0 0 1-2.25-2.381c-.547-1.003-.818-2.109-.818-3.316 0-1.519.347-2.941 1.037-4.266.692-1.324 1.694-2.39 3.01-3.199 1.314-.807 2.859-1.212 4.63-1.212 1.713 0 3.106.429 4.178 1.286l-.438 2.657c-.993-1.051-2.29-1.576-3.885-1.576-1.13 0-2.139.287-3.024.861a5.912 5.912 0 0 0-2.06 2.264 6.426 6.426 0 0 0-.731 3.01c0 1.305.37 2.361 1.111 3.169.739.809 1.753 1.212 3.038 1.212.798 0 1.597-.145 2.396-.438a6.406 6.406 0 0 0 2.132-1.285l-.408 2.689c-.76.506-1.52.865-2.279 1.081-.76.213-1.568.32-2.425.32-1.189 0-2.26-.292-3.214-.876M509.622 101.518a6.055 6.055 0 0 0-1.885 2.936h8.474c.019-.156.028-.37.028-.643 0-1.091-.291-1.948-.876-2.572-.585-.622-1.412-.933-2.484-.933-1.246 0-2.332.404-3.257 1.212m7.684-1.812c.963 1.062 1.447 2.441 1.447 4.133 0 .566-.03 1.034-.09 1.403-.057.372-.156.81-.29 1.314h-10.987c-.057 1.461.321 2.588 1.139 3.376.818.789 1.929 1.183 3.332 1.183.974 0 1.861-.121 2.66-.365a9.947 9.947 0 0 0 2.365-1.096l-.351 2.191c-1.499 1.013-3.272 1.519-5.317 1.519-1.343 0-2.508-.287-3.491-.862a5.69 5.69 0 0 1-2.25-2.381c-.517-1.012-.774-2.151-.774-3.418 0-1.247.31-2.536.934-3.871.624-1.334 1.569-2.453 2.834-3.36 1.267-.904 2.824-1.358 4.674-1.358 1.814 0 3.201.531 4.165 1.592M377.372 92.476c-.605 3.97-3.636 3.97-6.568 3.97h-1.668l1.17-7.411a.92.92 0 0 1 .911-.777h.764c1.995 0 3.88 0 4.853 1.137.581.679.757 1.689.538 3.081m-1.276-10.355h-11.058c-.755 0-1.4.55-1.517 1.298l-4.471 28.351a.92.92 0 0 0 .911 1.065h5.673c.529 0 .979-.385 1.061-.907l1.269-8.038a1.534 1.534 0 0 1 1.517-1.296h3.498c7.283 0 11.488-3.525 12.586-10.512.494-3.055.02-5.455-1.41-7.135-1.573-1.849-4.361-2.826-8.059-2.826M298.508 92.476c-.604 3.97-3.635 3.97-6.568 3.97h-1.668l1.171-7.411a.92.92 0 0 1 .911-.777h.764c1.995 0 3.88 0 4.852 1.137.582.679.757 1.689.538 3.081m-1.275-10.355h-11.058c-.755 0-1.4.55-1.517 1.298l-4.471 28.351a.92.92 0 0 0 .911 1.065h5.278c.757 0 1.4-.55 1.517-1.296l1.207-7.649a1.536 1.536 0 0 1 1.518-1.296h3.498c7.283 0 11.487-3.525 12.586-10.512.494-3.055.019-5.455-1.41-7.135-1.574-1.849-4.361-2.826-8.059-2.826M322.902 102.655c-.511 3.026-2.913 5.056-5.976 5.056-1.536 0-2.764-.494-3.556-1.43-.783-.926-1.078-2.247-.829-3.719.477-2.998 2.917-5.094 5.934-5.094 1.503 0 2.724.499 3.53 1.443.811.95 1.13 2.281.897 3.744m7.379-10.305h-5.294a.921.921 0 0 0-.911.778l-.233 1.48-.37-.536c-1.147-1.664-3.702-2.221-6.254-2.221-5.85 0-10.846 4.432-11.819 10.65-.506 3.102.212 6.065 1.971 8.134 1.616 1.901 3.921 2.693 6.668 2.693 4.716 0 7.33-3.03 7.33-3.03l-.236 1.472a.922.922 0 0 0 .911 1.065h4.768c.756 0 1.398-.55 1.517-1.296l2.863-18.124a.922.922 0 0 0-.911-1.065" fill="#FFF"/><g transform="translate(333 91)"><mask id="d" fill="#fff"><use xlink:href="#c"/></mask><path d="M68.765 11.655c-.511 3.026-2.913 5.056-5.976 5.056-1.536 0-2.764-.494-3.556-1.43-.783-.926-1.077-2.247-.828-3.719.476-2.998 2.917-5.094 5.933-5.094 1.503 0 2.724.499 3.53 1.443.811.95 1.13 2.281.897 3.744M76.144 1.35H70.85a.921.921 0 0 0-.911.778l-.233 1.48-.37-.536C68.189 1.408 65.635.851 63.082.851c-5.85 0-10.846 4.432-11.818 10.65-.507 3.102.212 6.065 1.971 8.134 1.615 1.901 3.92 2.693 6.667 2.693 4.716 0 7.331-3.03 7.331-3.03l-.237 1.472a.922.922 0 0 0 .911 1.065h4.769c.755 0 1.397-.55 1.517-1.296l2.861-18.124a.92.92 0 0 0-.91-1.065M25.48 1.349h-5.322c-.508 0-.985.253-1.27.675l-7.341 10.811L8.436 2.446a1.537 1.537 0 0 0-1.472-1.097H1.733a.921.921 0 0 0-.872 1.22l5.858 17.2-5.512 7.777A.922.922 0 0 0 1.961 29h5.315c.505 0 .976-.247 1.263-.661L26.237 2.796a.922.922 0 0 0-.757-1.447" fill="#FFF" mask="url(#d)"/></g><path d="M415.385 82.9l-4.538 28.871a.92.92 0 0 0 .91 1.064h4.565c.755 0 1.398-.548 1.517-1.296l4.474-28.352a.922.922 0 0 0-.91-1.065h-5.107a.92.92 0 0 0-.911.778" fill="#FFF"/></g></svg>